<?xml version="1.0" standalone="no"?>
<!DOCTYPE svg PUBLIC "-//W3C//DTD SVG 20010904//EN"
 "http://www.w3.org/TR/2001/REC-SVG-20010904/DTD/svg10.dtd">
<svg version="1.0" xmlns="http://www.w3.org/2000/svg"
 width="666.000000pt" height="666.000000pt" viewBox="0 0 666.000000 666.000000"
 preserveAspectRatio="xMidYMid meet">
<metadata>
Created by potrace 1.14, written by Peter Selinger 2001-2017
</metadata>
<g transform="translate(0.000000,666.000000) scale(0.100000,-0.100000)"
fill="#000000" stroke="none">
<path d="M620 3228 l0 -730 23 5 c26 7 131 21 187 26 14 1 16 46 15 391 0 214
3 386 6 382 4 -4 36 -92 72 -197 143 -418 189 -545 196 -541 4 3 36 7 72 10
35 3 87 8 116 12 l52 6 -1 683 0 683 -97 1 c-53 0 -103 -2 -112 -5 -14 -4 -16
-48 -15 -404 1 -220 -2 -400 -5 -400 -3 0 -33 78 -66 173 -75 209 -119 331
-181 502 l-47 130 -108 2 -107 1 0 -730z"/>
<path d="M1584 3946 c-9 -25 1 -1331 11 -1329 6 0 60 4 120 8 61 4 118 9 127
11 10 1 70 6 135 9 99 6 156 10 228 14 12 1 14 199 2 218 -4 7 -13 10 -20 8
-7 -2 -55 -6 -107 -9 -52 -3 -134 -8 -182 -12 l-88 -6 0 171 0 170 153 3 152
3 0 110 0 110 -150 0 -150 0 -5 30 c-3 17 -4 85 -2 153 l3 122 202 0 203 0 -1
113 0 112 -313 1 c-227 1 -315 -1 -318 -10z"/>
<path d="M2361 3844 l1 -114 119 0 119 0 0 -526 0 -526 113 6 c61 2 112 5 113
5 0 1 0 234 0 519 l0 517 121 3 121 3 -2 112 -1 112 -352 1 -352 2 0 -114z"/>
<path d="M3217 3947 c-2 -6 -4 -291 -3 -632 l1 -620 113 -3 112 -3 1 143 c0
79 0 196 -1 261 l-1 117 155 0 156 0 0 113 0 113 -152 0 -153 -1 -3 148 -3
147 206 0 205 0 0 114 0 113 -314 1 c-239 1 -315 -1 -319 -11z"/>
<path d="M3999 3952 c-3 -28 -1 -1263 2 -1266 2 -2 67 -7 144 -10 77 -3 187
-9 245 -13 58 -4 132 -7 165 -7 l60 -1 0 108 c0 59 -2 107 -5 108 -3 0 -14 2
-24 4 -15 3 -291 17 -343 18 -17 0 -15 -45 -17 547 l-1 515 -112 2 c-62 1
-113 -1 -114 -5z"/>
<path d="M4809 3942 c0 -9 -2 -306 -2 -659 l-2 -643 25 -5 c14 -2 64 -7 113
-10 79 -5 87 -4 88 12 1 24 1 1238 0 1286 l-1 37 -110 -1 c-95 -1 -110 -3
-111 -17z"/>
<path d="M5249 3908 c10 -29 48 -129 85 -223 139 -356 156 -400 156 -410 0 -5
-63 -158 -141 -338 -77 -181 -138 -331 -135 -334 5 -5 13 -6 151 -18 l80 -6
21 48 c12 26 47 109 79 183 31 74 60 138 64 143 4 4 43 -85 86 -198 44 -114
84 -210 90 -215 9 -8 36 -12 160 -26 28 -3 60 -7 72 -9 l22 -4 -23 62 c-54
140 -149 386 -171 442 -13 33 -41 106 -63 161 l-40 102 110 253 c60 140 127
295 148 346 l39 92 -126 -2 -126 -2 -80 -189 -81 -188 -17 38 c-19 41 -112
284 -123 321 -6 20 -13 21 -131 22 l-124 2 18 -53z"/>
</g>
</svg>
